<?xml version="1.0" encoding="utf-8"?>
<!-- Generator: Adobe Illustrator 24.2.0, SVG Export Plug-In . SVG Version: 6.00 Build 0)  -->
<svg version="1.1" xmlns="http://www.w3.org/2000/svg" xmlns:xlink="http://www.w3.org/1999/xlink" x="0px" y="0px"
	 viewBox="0 0 158.57 158.57" style="enable-background:new 0 0 158.57 158.57;" xml:space="preserve">
<style type="text/css">
	.st0{fill:#7399C6;}
	.st1{fill:#FFFFFF;}
</style>
<g id="Layer_1">
	<rect class="st0" width="158.57" height="158.57"/>
	<g>
		<path class="st1" d="M19.23,22.37h8.68v13.95c-2.92,0.53-5.96,0.78-7.98,0.78c-8.76,0-12.3-5.35-12.3-14.15
			c0-9.46,4.57-14.81,13.62-14.81c1.19,0,3.54,0.08,6.33,0.7v8.64h-1.97l-1.15-3.33c-1.11-3.08-2.43-4.36-4.36-4.36
			c-3.7,0-5.55,4.73-5.55,13.08c0,8.64,1.03,12.55,5.51,12.55c0.49,0,1.23-0.04,2.1-0.21v-9.83l-2.92-1.89V22.37z M27.5,60.05
			c0,5.59-3.83,8.8-10.57,8.8c-1.85,0-4.57-0.29-7.12-0.78v-10.7h1.97l0.78,2.43c1.81,5.64,3.21,7.41,5.55,7.41
			c2.51,0,4.24-1.93,4.24-4.69c0-2.18-1.11-3.83-3.5-5.1l-4.11-2.22c-3.17-1.69-4.9-4.32-4.9-7.53c0-4.85,3.91-7.78,10.53-7.78
			c1.48,0,3.21,0.12,5.96,0.49v8.8h-1.97l-1.15-3.21c-1.07-3.21-2.18-4.44-4.48-4.44c-2.34,0-3.83,1.32-3.83,3.37
			c0,1.81,1.11,3.29,3.29,4.53l4.15,2.34C25.86,53.75,27.5,56.43,27.5,60.05z M45.93,66.51l0.82,1.23v0.62H40.5l-0.25-2.55
			c-0.66,1.85-2.51,3.04-4.9,3.04c-3.17,0-5.31-1.93-5.31-5.43c0-3.41,1.89-5.55,7.57-7.86l2.55-1.07v-2.92
			c0-2.34-0.66-3.37-2.18-3.37c-1.4,0-2.26,0.86-3.25,3.25l-1.32,3.25h-1.85v-6.71c2.43-0.74,4.85-1.23,7.04-1.23
			c4.77,0,7.32,2.22,7.32,6.25V66.51z M48.57,26.07c0,7.08-3.79,11.03-8.64,11.03c-4.81,0-8.6-3.95-8.6-11.03
			c0-7.12,3.78-11.07,8.6-11.07C44.78,15,48.57,18.95,48.57,26.07z M40.17,62.8v-6.83l-0.82,0.37c-2.39,1.07-3.46,3-3.46,6.13
			c0,2.55,0.66,3.83,2.06,3.83C39.39,66.3,40.17,64.86,40.17,62.8z M42.52,26.07c0-7.69-0.7-9.67-2.59-9.67
			c-1.85,0-2.55,1.97-2.55,9.67c0,7.65,0.7,9.63,2.55,9.63C41.82,35.69,42.52,33.72,42.52,26.07z M62.76,63.13l1.23,0.62
			c-1.28,3.5-3.04,5.1-6.54,5.1c-5.27,0-8.15-4.07-8.15-10.9c0-7.28,3.33-11.19,9.13-11.19c1.52,0,3.66,0.25,5.39,0.95v6.99h-1.93
			l-0.82-2.63c-0.99-3.04-1.69-3.87-2.76-3.87c-1.69,0-3,2.1-3,9.87c0,6.29,0.95,8.6,3.5,8.6C60.45,66.67,61.65,65.77,62.76,63.13z
			 M58.69,36.6h-7.41v-0.62l0.82-1.23V11.79l-0.82-1.23V9.94l6.58-0.49v25.3l0.82,1.23V36.6z M69.01,37.09
			c-4.73,0-7.4-3.99-7.4-11.23c0-7.16,2.88-10.86,7.45-10.86c2.1,0,3.42,0.95,3.95,2.59v-5.8l-0.82-1.23V9.94l6.58-0.49v25.3
			l0.82,1.23v0.62h-5.84l-0.45-3.04C72.71,36.02,71.4,37.09,69.01,37.09z M83.41,66.51l0.82,1.23v0.62h-7.4v-0.62l0.82-1.23V51.49
			c0-1.56-0.66-2.55-1.89-2.55c-1.56,0-2.72,1.44-2.72,3.62v13.95l0.82,1.23v0.62h-7.41v-0.62l0.82-1.23V43.55l-0.82-1.23V41.7
			l6.58-0.49v8.35c0.82-1.97,2.88-2.8,4.94-2.8c3.5,0,5.43,2.14,5.43,6.29V66.51z M67.65,25.94c0,7.24,0.74,9.54,2.63,9.54
			c2.22,0,2.71-3.13,2.71-9.63c0-6.25-0.53-9.26-2.71-9.26C68.39,16.61,67.65,18.83,67.65,25.94z M109.49,34.75l0.82,1.23v0.62h-7.4
			v-0.62l0.82-1.23v-15.1c0-1.4-0.58-2.47-1.85-2.47c-1.52,0-2.51,1.56-2.51,3.7v13.86l0.82,1.23v0.62h-7.41v-0.62l0.82-1.23v-15.1
			c0-1.4-0.58-2.47-1.81-2.47c-1.56,0-2.55,1.56-2.55,3.7v13.86l0.82,1.23v0.62h-7.4v-0.62l0.82-1.23V17.8l-0.82-0.99v-0.62
			l5.76-0.7h0.49l0.16,2.47c0.74-1.93,2.71-2.96,5.1-2.96c2.43,0,4.03,1.15,4.81,3.29c0.78-2.06,2.76-3.29,5.35-3.29
			c3.33,0,5.14,2.06,5.14,6.21V34.75z M101.51,62.06c0,3.78-2.26,6.79-8.02,6.79c-1.4,0-3.37-0.16-6.38-0.7v-7.57h1.69l0.58,1.56
			c1.44,4.07,2.43,5.27,4.61,5.27c2.06,0,3.25-1.11,3.25-3.17c0-1.69-0.86-2.8-2.92-3.91l-3.7-1.93c-2.39-1.28-3.46-3.13-3.46-5.51
			c0-3.87,2.92-6.13,7.82-6.13c1.48,0,3.29,0.21,5.27,0.62v5.96h-1.69l-0.91-2.1c-0.95-2.22-1.77-3.04-3.46-3.04
			c-1.81,0-2.8,0.9-2.8,2.43c0,1.32,0.78,2.18,2.8,3.29l3.66,2.02C100.23,57.29,101.51,59.18,101.51,62.06z M128.66,34.75l0.82,1.23
			v0.62h-6.29l-0.25-2.55c-0.66,1.85-2.55,3.04-4.9,3.04c-3.17,0-5.31-1.93-5.31-5.43c0-3.42,1.89-5.55,7.57-7.86l2.59-1.07v-2.92
			c0-2.35-0.66-3.37-2.22-3.37c-1.4,0-2.26,0.86-3.25,3.25l-1.32,3.25h-1.85v-6.71c2.43-0.74,4.85-1.23,7.04-1.23
			c4.77,0,7.36,2.22,7.36,6.25V34.75z M122.9,31.05v-6.83l-0.86,0.37c-2.39,1.07-3.46,3-3.46,6.13c0,2.55,0.66,3.83,2.06,3.83
			C122.08,34.54,122.9,33.1,122.9,31.05z M150.05,35.98v0.62h-7.4v-0.62l0.82-1.23V19.73c0-1.56-0.66-2.55-1.89-2.55
			c-1.56,0-2.71,1.44-2.71,3.62v13.95l0.82,1.23v0.62h-7.41v-0.62l0.82-1.23V17.8l-0.82-0.99v-0.62l5.8-0.7h0.49l0.17,2.51
			c0.74-2.14,2.88-3,5.02-3c3.54,0,5.47,2.14,5.47,6.29v13.45L150.05,35.98z"/>
	</g>
</g>
<g id="Layer_2">
</g>
</svg>
